<svg width="22" height="22" viewBox="0 0 22 22" fill="none" xmlns="http://www.w3.org/2000/svg">

<path d="M12.6469 4.0869C13.4938 3.89379 14.3877 4.01967 15.1196 4.49315C15.5377 4.76374 15.7377 4.97355 16.0864 5.31737C16.294 5.52133 16.5012 5.72718 16.7065 5.93358L17.8256 7.04589L18.4848 7.70311C18.6684 7.88648 18.9686 8.14598 19.0258 8.40331C19.0609 8.50352 19.0792 8.66768 19.0473 8.76659C19.026 9.01309 18.8266 9.19513 18.6782 9.37401L18.0668 10.1094L17.0756 11.3096C16.6548 11.8179 16.3361 12.2239 15.8158 12.6582C14.9972 13.3414 14.0484 13.7936 12.9975 13.9814C12.7055 14.0336 12.4374 14.0385 12.1489 14.0674C12.1487 14.1484 12.1519 14.2583 12.1479 14.3369C12.1483 14.4715 12.1552 15.155 12.1293 15.2617C12.1197 15.5309 12.0396 15.8619 11.9594 16.1191C11.7701 16.7261 11.394 17.3149 10.936 17.7558C10.2407 18.425 9.26459 18.7942 8.30022 18.7451C8.10268 18.7356 7.99482 18.7117 7.80901 18.6904L7.68694 18.6641C6.32401 18.3947 5.18112 17.1598 4.85296 15.8398C4.74072 15.388 4.73734 14.9319 4.7348 14.4707L4.73284 13.5098C4.73224 13.0449 4.72503 12.5738 4.74749 12.1094C4.7637 11.7748 4.83675 11.5057 4.88812 11.1865C4.79729 11.0405 4.64905 10.8879 4.53655 10.7519C4.06288 10.1794 3.59963 9.59276 3.12542 9.02147C2.95987 8.83814 2.95818 8.37317 3.12054 8.18456C3.37319 7.89166 3.71182 7.57775 3.9887 7.30077C4.56737 6.71576 5.15201 6.13644 5.74261 5.56347C6.11603 5.20168 6.40065 4.86857 6.84319 4.57421C7.23989 4.31038 7.62047 4.13016 8.09515 4.05175C8.82807 3.93076 9.58715 4.02762 10.2416 4.38769C10.528 4.54528 10.7906 4.73138 11.0561 4.92089C11.238 4.7975 11.4191 4.65527 11.6 4.53612C11.9191 4.325 12.274 4.17261 12.6469 4.0869ZM9.35101 8.72069C7.70201 9.00058 6.44937 10.2421 6.20647 11.9072C6.16702 12.1558 6.17173 12.4396 6.17132 12.6914L6.16741 13.3975L6.16644 14.3174C6.16674 14.6251 6.16237 14.9203 6.20843 15.2256C6.25216 15.5039 6.34268 15.7732 6.47601 16.0215C6.77057 16.5596 7.2522 16.9707 7.84417 17.1426C8.40978 17.3097 9.01887 17.241 9.53362 16.9531C10.1574 16.6048 10.5319 16.0284 10.6567 15.333C10.6858 15.1707 10.696 15.0078 10.6996 14.8447V13.3476C10.6993 12.6808 10.6931 12.2029 10.8842 11.543C11.1673 10.5659 11.7165 9.75585 12.5444 9.16015C12.7507 9.01169 12.9198 8.91695 13.143 8.79296C13.0054 8.74976 12.9175 8.74396 12.7748 8.73241C12.6861 8.72644 12.5969 8.72669 12.5082 8.73339C11.0859 8.83867 9.7647 9.98374 9.35882 11.3408C9.30922 11.5068 9.27073 11.6764 9.24456 11.8476C9.2019 12.1284 9.23381 12.4095 9.03167 12.6396C8.79002 12.9144 8.3147 12.9645 8.04144 12.709C7.90151 12.579 7.79938 12.3648 7.80315 12.1699C7.80864 11.887 7.83742 11.5831 7.89593 11.3057C8.06034 10.5371 8.40753 9.8191 8.90765 9.21288C9.0469 9.04151 9.19996 8.8817 9.35101 8.72069ZM13.3774 5.47851C12.8339 5.48561 12.3416 5.73193 11.9584 6.10546C11.6639 6.3926 11.5044 6.71348 11.0424 6.70995C10.639 6.7068 10.5384 6.48559 10.2797 6.23241C9.83421 5.79642 9.31786 5.47134 8.6723 5.47948C8.34067 5.48182 8.01566 5.57489 7.73284 5.74804C7.40601 5.94665 7.11404 6.25352 6.84222 6.52343L6.3305 7.02636C5.77998 7.56173 5.23545 8.10418 4.69866 8.65331L5.47991 9.65624C6.05011 8.87134 6.85828 8.15624 7.73382 7.72948C8.84541 7.18775 9.93498 7.12349 11.1059 7.53417C12.0207 7.24468 12.6482 7.19089 13.5903 7.38476C13.9434 7.46839 14.2347 7.57344 14.5756 7.70019C15.1409 7.91031 15.8433 8.11463 15.7826 8.86229C15.7552 9.1999 15.5192 9.46152 15.1977 9.55565C14.9891 9.61658 14.7632 9.63275 14.559 9.71776C13.2114 10.1815 12.2799 11.1386 12.1401 12.6074C12.2823 12.6024 12.4226 12.5936 12.5639 12.5742C13.5678 12.436 14.476 11.9432 15.2094 11.2549C15.2984 11.1714 15.3781 11.0641 15.4594 10.9736C15.6822 10.7257 15.8804 10.4562 16.0961 10.2031C16.3354 9.92374 16.5725 9.64171 16.8071 9.35839C16.9996 9.13038 17.2063 8.89436 17.3871 8.65819C17.3793 8.64902 17.3708 8.63986 17.3627 8.63085C17.1946 8.44338 16.9784 8.23618 16.7973 8.05761L15.9418 7.21093L15.2065 6.47558C15.0089 6.27799 14.6953 5.95934 14.4584 5.80565C14.1574 5.60823 13.8083 5.49549 13.4487 5.47948C13.425 5.47834 13.4011 5.47822 13.3774 5.47851Z" fill="black"/>
</svg>
