<svg width="22" height="22" viewBox="0 0 22 22" fill="none" xmlns="http://www.w3.org/2000/svg">

<path d="M12.6469 4.08697C13.4939 3.89385 14.3877 4.01971 15.1196 4.49322C15.5377 4.76382 15.7376 4.97359 16.0864 5.31744C16.294 5.52141 16.5012 5.72724 16.7065 5.93365L17.8256 7.04596L18.4848 7.70318C18.6684 7.88656 18.9686 8.14602 19.0258 8.40338C19.0609 8.50359 19.0792 8.66775 19.0473 8.76666C19.026 9.01316 18.8266 9.1952 18.6782 9.37408L18.0668 10.1094L17.0756 11.3096C16.6548 11.818 16.3361 12.224 15.8159 12.6583C14.9972 13.3415 14.0484 13.7936 12.9975 13.9815C12.7055 14.0337 12.4374 14.0386 12.1489 14.0674C12.1487 14.1485 12.1519 14.2584 12.1479 14.337C12.1483 14.4715 12.1552 15.1551 12.1293 15.2618C12.1198 15.531 12.0396 15.862 11.9594 16.1192C11.7701 16.7262 11.394 17.3149 10.936 17.7559C10.2408 18.4251 9.26459 18.7942 8.30024 18.7452C8.10267 18.7357 7.99484 18.7118 7.80902 18.6905L7.68695 18.6641C6.324 18.3948 5.18114 17.1599 4.85297 15.8399C4.74072 15.3881 4.73735 14.932 4.73481 14.4708L4.73285 13.5098C4.73225 13.0449 4.72504 12.5738 4.7475 12.1094C4.76371 11.7749 4.83676 11.5058 4.88813 11.1866C4.7973 11.0406 4.64907 10.8879 4.53656 10.752C4.06288 10.1794 3.59966 9.59285 3.12543 9.02154C2.95984 8.83825 2.9582 8.37327 3.12055 8.18463C3.37319 7.89173 3.71183 7.57781 3.98871 7.30084C4.56738 6.71584 5.15202 6.1365 5.74262 5.56353C6.11604 5.20175 6.40067 4.86864 6.8432 4.57428C7.23991 4.31044 7.62048 4.13022 8.09516 4.05182C8.8281 3.93082 9.58715 4.02767 10.2416 4.38775C10.528 4.54535 10.7906 4.73144 11.0561 4.92096C11.238 4.79757 11.4191 4.65534 11.6 4.53619C11.9191 4.32506 12.274 4.17267 12.6469 4.08697ZM13.3774 5.47857C12.8339 5.48568 12.3416 5.73199 11.9584 6.10553C11.6639 6.39266 11.5044 6.71354 11.0424 6.71002C10.639 6.70687 10.5384 6.48566 10.2797 6.23248C9.83421 5.79647 9.31788 5.47142 8.67231 5.47955C8.34068 5.48189 8.01568 5.57495 7.73285 5.7481C7.40601 5.94673 7.11406 6.25358 6.84223 6.52349L6.33051 7.02642C5.77999 7.5618 5.23546 8.10424 4.69867 8.65338L5.47992 9.65631C6.05012 8.87139 6.85828 8.15631 7.73383 7.72955C8.84544 7.18781 9.93497 7.12354 11.1059 7.53424C12.0207 7.24475 12.6482 7.19095 13.5903 7.38482C13.9434 7.46846 14.2347 7.5735 14.5756 7.70025C15.1409 7.91039 15.8433 8.11464 15.7827 8.86236C15.7552 9.19996 15.5192 9.46158 15.1977 9.55572C14.9891 9.61665 14.7632 9.63282 14.559 9.71783C13.2114 10.1815 12.2799 11.1386 12.1401 12.6075C12.2823 12.6025 12.4226 12.5937 12.5639 12.5743C13.5678 12.4361 14.476 11.9432 15.2094 11.2549C15.2984 11.1714 15.3781 11.0641 15.4594 10.9737C15.6823 10.7258 15.8804 10.4563 16.0961 10.2032C16.3354 9.9238 16.5725 9.64179 16.8071 9.35846C16.9996 9.13044 17.2063 8.89444 17.3871 8.65826C17.3793 8.64907 17.3708 8.63995 17.3627 8.63092C17.1946 8.44343 16.9784 8.23626 16.7973 8.05767L15.9418 7.21099L15.2065 6.47564C15.0089 6.27806 14.6953 5.95942 14.4584 5.80572C14.1574 5.60828 13.8083 5.49556 13.4487 5.47955C13.425 5.47841 13.4011 5.47829 13.3774 5.47857Z" fill="black"/>
<path d="M9.35088 8.72131C7.70167 9.00124 6.44865 10.2422 6.20598 11.9077C6.16651 12.1563 6.17207 12.4393 6.17165 12.6912L6.16707 13.3973L6.16664 14.3175C6.16695 14.6254 6.16239 14.9202 6.20851 15.2256C6.25227 15.5042 6.34283 15.7734 6.47633 16.0218C6.77091 16.5599 7.25161 16.9706 7.84359 17.1425C8.40934 17.3097 9.01864 17.2417 9.53355 16.9537C10.1575 16.6054 10.5314 16.0287 10.6562 15.3332C10.7145 15.0083 10.6999 14.6824 10.6997 14.3531L10.6991 13.3474C10.6988 12.6805 10.6926 12.2036 10.8837 11.5435C11.1668 10.5661 11.7158 9.75637 12.5438 9.16052C12.7504 9.01182 12.9196 8.9176 13.1429 8.7935C13.0052 8.75024 12.9175 8.7445 12.7748 8.73294C12.6859 8.72695 12.5966 8.72732 12.5078 8.73405C11.0853 8.83934 9.76402 9.98382 9.35832 11.3411C9.30867 11.5072 9.27061 11.6766 9.24445 11.848C9.20177 12.1288 9.23372 12.4093 9.03136 12.6395C8.78964 12.9145 8.31408 12.965 8.04083 12.709C7.90083 12.5791 7.79884 12.3654 7.80261 12.1705C7.80806 11.8873 7.83737 11.5835 7.89594 11.3058C8.06034 10.5371 8.40733 9.81923 8.90759 9.21289C9.0469 9.04143 9.19976 8.8824 9.35088 8.72131Z" fill="#CC0000"/>
</svg>
